# xmcd
#
# Track frame offsets:
#	150
#	14405
#	31000
#	48202
#	65425
#	90007
#	111420
#	127580
#	141375
#	155760
#	174182
#	189322
#
# Disc length: 2871 seconds
#
# Revision: 1
# Processed by: cddbd v1.4PL0 Copyright (c) Steve Scherf et al.
# Submitted via: audiograbber 1.80.04
#
DISCID=8c0b350c
DTITLE=Rhythmtown - Jive - Analog Travelog
DYEAR=1900
DGENRE=
TTITLE0=Magnatone
TTITLE1=You Better Believe It
TTITLE2=Have You Heard
TTITLE3=Hungry Babe
TTITLE4=Jump Start Funk
TTITLE5=Rich Woman
TTITLE6=Go West
TTITLE7=The Sweeper
TTITLE8=If You Belive (In What You Do)
TTITLE9=New Groove Unit
TTITLE10=Let The Boogie Woogie Roll
TTITLE11=State Of Mind
EXTD=
EXTT0=
EXTT1=
EXTT2=
EXTT3=
EXTT4=
EXTT5=
EXTT6=
EXTT7=
EXTT8=
EXTT9=
EXTT10=
EXTT11=
PLAYORDER=
